<svg width="101.00000000000001" height="99" xmlns="http://www.w3.org/2000/svg">

 <title/>
 <g>
  <title>background</title>
  <rect fill="none" id="canvas_background" height="101" width="103" y="-1" x="-1"/>
 </g>
 <g>
  <title>Layer 1</title>
  <path fill="#ffffff" id="svg_1" d="m27.740144,8.022099a19.19,19.19 0 0 1 10.08,2.85l2.17,1.36l2.54,-0.54a39,39 0 0 1 46.14,46.72l-0.52,2.33l1.11,2.11a19,19 0 0 1 2.19,8.92a19.25,19.25 0 0 1 -28.46,16.9l-2.06,-1.15l-2.34,0.48a39,39 0 0 1 -46.16,-45.64l0.49,-2.55l-1.4,-2.19a19.24,19.24 0 0 1 16.22,-29.6m0,-6.5a25.74,25.74 0 0 0 -21.69,39.61a45.51,45.51 0 0 0 53.86,53.25a25.75,25.75 0 0 0 35.14,-34.54a45.49,45.49 0 0 0 -53.83,-54.5a25.62,25.62 0 0 0 -13.48,-3.82z" class="cls-1"/>
  <path fill="#ffffff" id="svg_2" d="m28.886487,37.715135c0,-11.52 11.52,-15.7 22.27,-15.7c16.66,0 20.44,9.84 21.32,12.66c0.53,1.68 -1,6.51 -5.6,6s-5.23,-7 -14.19,-9.52c-2.75,-0.76 -11.61,0.35 -11.61,5.52c0,4.6 15,6.86 22.37,9.71c7.72,3 11.23,7.14 11.23,14.18c0,14.28 -15.42,17.7 -21.8,17.7c-20.18,0 -24.56,-14 -24.56,-16.37a5.1,5.1 0 0 1 5.23,-5.43c6.95,0 4.28,12.28 17.61,12.28c10.47,0 11.52,-4.85 11.52,-7.23c0,-6.85 -18.27,-9.23 -18.27,-9.23s-15.52,-2.44 -15.52,-14.57z" class="cls-1"/>
 </g>
</svg>